<?xml version="1.0" encoding="utf-8"?><svg xmlns="http://www.w3.org/2000/svg" xmlns:xlink="http://www.w3.org/1999/xlink">
<symbol  viewBox="0 0 24 24" id="clock" xmlns="http://www.w3.org/2000/svg"><path d="M12 22c5.523 0 10-4.477 10-10S17.523 2 12 2 2 6.477 2 12s4.477 10 10 10z"  stroke-width="2" stroke-linecap="round" stroke-linejoin="round"/><path d="M12 6v6l4 2"  stroke-width="2" stroke-linecap="round" stroke-linejoin="round"/></symbol>
<symbol viewBox="0 0 33 33" id="facebook" xmlns="http://www.w3.org/2000/svg"><path fill-rule="evenodd" clip-rule="evenodd" d="M5.5 2.75h22a2.75 2.75 0 012.75 2.75v22a2.75 2.75 0 01-2.75 2.75h-22a2.75 2.75 0 01-2.75-2.75v-22A2.75 2.75 0 015.5 2.75zm0 2.75v22h22v-22h-22zm12.375 11.006h-2.567v-2.75h2.567v-1.381A4.125 4.125 0 0122 8.25h1.375V11H22c-.76 0-1.375.616-1.375 1.375v1.381h2.726v2.75h-2.726v8.244h-2.75v-8.244z" /></symbol>
<symbol viewBox="0 0 33 33" id="instagram" xmlns="http://www.w3.org/2000/svg"><path fill-rule="evenodd" clip-rule="evenodd" d="M11 2.75h11A8.25 8.25 0 0130.25 11v11A8.25 8.25 0 0122 30.25H11A8.25 8.25 0 012.75 22V11A8.25 8.25 0 0111 2.75zm0 2.75A5.5 5.5 0 005.5 11v11a5.5 5.5 0 005.5 5.5h11a5.5 5.5 0 005.5-5.5V11A5.5 5.5 0 0022 5.5H11zm5.5 17.875a6.875 6.875 0 110-13.75 6.875 6.875 0 010 13.75zm0-2.75a4.125 4.125 0 100-8.25 4.125 4.125 0 000 8.25zM23.375 11a1.375 1.375 0 110-2.75 1.375 1.375 0 010 2.75z" /></symbol>
<symbol  viewBox="0 0 24 24" id="mail" xmlns="http://www.w3.org/2000/svg"><path d="M4 4h16c1.1 0 2 .9 2 2v12c0 1.1-.9 2-2 2H4c-1.1 0-2-.9-2-2V6c0-1.1.9-2 2-2z"  stroke-width="2" stroke-linecap="round" stroke-linejoin="round"/><path d="M22 6l-10 7L2 6"  stroke-width="2" stroke-linecap="round" stroke-linejoin="round"/></symbol>
<symbol  viewBox="0 0 21 21" id="navigation" xmlns="http://www.w3.org/2000/svg"><path d="M1 10l19-9-9 19-2-8-8-2z"  stroke-width="2" stroke-linecap="round" stroke-linejoin="round"/></symbol>
<symbol  viewBox="0 0 33 33" id="twitter" xmlns="http://www.w3.org/2000/svg"><path fill-rule="evenodd" clip-rule="evenodd" d="M29.04 6.199l1.945.227-.875 1.752-1.28 2.564c-.051.181-.14.34-.272.547-.055.086-.243.36-.252.374-.05.074-.086.133-.112.18v3.284c0 8.404-8.133 13.745-15.814 13.745-1.572 0-2.766-.076-4.133-.374-2.25-.491-3.925-1.467-4.691-3.173l-.79-1.757 1.918-.176c1.735-.16 3.238-.49 4.393-.932-3.17-.51-4.947-1.903-4.947-4.518v-1.375h1.375c.302 0 .574-.024.818-.07-2.38-1.422-3.571-3.704-3.571-6.87l-.001-.28c-.01-1.595.076-2.447.513-3.535a6.302 6.302 0 011.23-1.935L5.53 2.75l1.01 1.153c3.324 3.8 6.61 6.104 9.966 6.383.014-3.506 2.664-6.159 6.188-6.159 1.642 0 3.132.624 4.303 1.748.641.132 1.322.24 2.042.324zM26 8.473l-.422-.096-.291-.32c-.704-.772-1.588-1.18-2.593-1.18-2.012 0-3.438 1.433-3.438 3.438 0 .327-.009.533-.05.803-.162 1.08-.768 1.947-2.013 1.947-4.122 0-7.841-2.209-11.468-5.98-.187.568-.23 1.152-.224 2.247v.295c0 2.816 1.142 4.356 3.843 5.215l.958.305v1.005c0 1.22-1.155 2.368-2.846 2.882.775.588 2.36.906 4.924.906h1.375v1.375c0 1.97-2.263 3.512-5.683 4.318 1.115.341 2.6.489 4.308.489 6.345 0 13.064-4.412 13.064-10.995V11.69c0-.404.117-.755.311-1.12.076-.142.16-.278.264-.433l.148-.22.11-.217.529-1.06a23.218 23.218 0 01-.807-.167z" /></symbol>
<symbol viewBox="0 0 33 33" id="youtube" xmlns="http://www.w3.org/2000/svg"><path fill-rule="evenodd" clip-rule="evenodd" d="M31.625 16.496c0 4.224-.401 6.82-1.341 8.43-.949 1.718-2.06 2.259-4.326 2.418-1.6.093-5.615.156-9.454.156-3.848 0-7.865-.063-9.48-.157-2.246-.158-3.357-.698-4.304-2.397-.942-1.643-1.345-4.25-1.345-8.434 0-4.21.4-6.803 1.336-8.45.96-1.723 2.09-2.269 4.317-2.4 1.54-.104 5.342-.162 9.476-.162 4.124 0 7.924.058 9.454.162 2.24.13 3.368.676 4.32 2.393.95 1.653 1.347 4.234 1.347 8.441zM27.89 9.418c-.445-.804-.704-.93-2.105-1.011-1.458-.1-5.222-.157-9.281-.157-4.068 0-7.835.058-9.303.157-1.387.082-1.65.21-2.093 1.003-.643 1.131-.983 3.335-.983 7.086 0 3.754.342 5.97.988 7.096.436.782.698.909 2.088 1.006 1.529.09 5.507.152 9.303.152 3.787 0 7.763-.062 9.277-.15 1.408-.1 1.666-.225 2.112-1.031.641-1.1.982-3.304.982-7.057 0-3.783-.339-5.974-.985-7.094zm-14.14 2.957l6.875 4.125-6.875 4.125v-8.25z" /></symbol></svg>