<svg version="1.1" id="Layer_1" xmlns="http://www.w3.org/2000/svg" x="0" y="0" viewBox="0 0 195 232" xml:space="preserve"><style/><path d="M184.5 7h-174v225H75c.1 0 .1-.1.2-.1l20.1-9.4c1-.6 2.3-.6 3.4 0l20.1 9.4c.1 0 .1.1.2.1h65.6l-.1-225z" opacity=".43" fill="#fff"/><path d="M195 0H0v225h75.5c.1 0 .1-.1.2-.1l20.1-9.4c1-.6 2.3-.6 3.3 0l20.1 9.4c.1 0 .1.1.2.1H195V0z" fill="#fff"/><path d="M105.5 96.7v12.6c-2.6.1-5.2.2-8 .2-3.5 0-6.8-.1-10-.3V96.7l9-6.4 9 6.4zm-6 5.9v-4l-3-2.2-3 2.2v4h6zM123.6 88v18.8c-4.2 1-8.5 1.6-12.8 2V94.2L96.5 84.1 82.2 94.2v14.4c-4.5-.5-8.9-1.3-13.2-2.5V88l9.7-6.3 8 4.7 9.8-6.9 9.6 6.8 7.9-4.5 9.6 6.2zm9.1 13c1 .6 1.7 1.7 1.8 2.8 0 5-16.6 9.1-37.1 9.1s-37-4.1-37-9.1c.1-1.2.8-2.2 1.8-2.8-3 1.6-4.8 3.4-4.8 5.3 0 6.2 17.9 11.2 40 11.2s40-5 40-11.2c.1-1.9-1.6-3.7-4.7-5.3z" fill-rule="evenodd" clip-rule="evenodd" fill="#355d01"/><path d="M33.2 151.1v-1.3h3.4v1.5c0 1.4.5 2.1 1.6 2.1s1.6-.7 1.6-2.1c0-.6-.1-1.1-.4-1.7s-.5-1-.9-1.4l-1.2-1.2c-.4-.4-.9-.8-1.4-1.3-.5-.5-.9-.9-1.3-1.4-.4-.5-.7-1.1-.9-1.8s-.4-1.5-.4-2.3c0-1.7.4-3 1.3-3.9.9-.9 2.1-1.4 3.6-1.4s2.7.5 3.5 1.4c.8.9 1.2 2.2 1.2 3.9v.7h-3.1v-.9c0-1.4-.6-2.1-1.7-2.1-.5 0-1 .2-1.2.5-.3.3-.4.9-.4 1.6 0 .6.1 1.1.4 1.7s.5 1 .9 1.4c.4.4.8.8 1.3 1.2.5.4.9.8 1.4 1.3.5.5.9.9 1.3 1.4s.7 1.1.9 1.8.4 1.5.4 2.3c0 1.7-.4 3-1.3 3.9s-2 1.4-3.6 1.4c-1.5 0-2.8-.5-3.7-1.4-.8-.9-1.3-2.2-1.3-3.9zm13.1 0v-16h3.3v16.2c0 1.4.6 2.1 1.7 2.1s1.7-.7 1.7-2.1v-16.2h3.3v16c0 1.7-.4 3-1.3 3.9-.9.9-2.1 1.4-3.7 1.4s-2.8-.5-3.7-1.4-1.3-2.2-1.3-3.9zm13.6 5.1v-21h4.9c1.6 0 2.9.4 3.7 1.3.8.9 1.2 2.2 1.2 3.9v2.7c0 1.7-.4 3-1.2 3.9-.8.9-2 1.3-3.7 1.3h-1.6v7.9h-3.3zm3.3-10.9h1.6c.5 0 1-.2 1.2-.5s.4-.8.4-1.5v-3.1c0-.7-.1-1.2-.4-1.5-.3-.3-.7-.4-1.2-.4h-1.6v7zm9.5 10.9v-21h9v3H76v5.9h4.5v3H76v6.2h5.7v3h-9zm12.5 0v-21h5c1.7 0 2.9.4 3.7 1.2s1.2 2 1.2 3.6v1.7c0 2.2-.7 3.6-2.2 4.3.8.3 1.3.9 1.7 1.6.3.7.5 1.7.5 2.9v3.2c0 1.2.1 2 .3 2.5h-3.3c-.1-.2-.1-.4-.2-.5s-.1-.4-.1-.7-.1-.8-.1-1.3v-3.3c0-1-.2-1.7-.5-2.1s-.9-.6-1.6-.6h-1.1v8.6h-3.3zm3.3-11.6h1.3c.7 0 1.1-.2 1.5-.5.3-.3.5-.9.5-1.7v-2.1c0-.8-.1-1.3-.4-1.6s-.7-.5-1.3-.5h-1.6v6.4z" fill="#963107"/><path d="M98.8 156.2v-21h3.3v9h3.8v-9h3.3v21h-3.3v-9h-3.8v9h-3.3zm14-5.1v-10.9c0-1.7.4-3 1.3-3.9s2.1-1.4 3.7-1.4 2.9.5 3.7 1.4c.9.9 1.3 2.2 1.3 3.9v10.9c0 1.7-.4 3-1.3 3.9-.9.9-2.1 1.4-3.7 1.4s-2.9-.5-3.7-1.4-1.3-2.2-1.3-3.9zm3.3.2c0 1.4.6 2.1 1.7 2.1s1.7-.7 1.7-2.1V140c0-1.4-.6-2.1-1.7-2.1s-1.7.7-1.7 2.1v11.3zm10.2-.2v-16h3.3v16.2c0 1.4.6 2.1 1.7 2.1s1.7-.7 1.7-2.1v-16.2h3.3v16c0 1.7-.4 3-1.3 3.9-.9.9-2.1 1.4-3.7 1.4s-2.8-.5-3.7-1.4-1.3-2.2-1.3-3.9zm13.1 0v-1.3h3.4v1.5c0 1.4.5 2.1 1.6 2.1s1.6-.7 1.6-2.1c0-.6-.1-1.1-.4-1.7-.2-.5-.5-1-.9-1.4l-1.2-1.2c-.5-.4-.9-.8-1.4-1.3-.5-.5-.9-.9-1.3-1.4-.4-.5-.7-1.1-.9-1.8-.2-.7-.4-1.5-.4-2.3 0-1.7.4-3 1.3-3.9.9-.9 2.1-1.4 3.6-1.4s2.7.5 3.5 1.4c.8.9 1.2 2.2 1.2 3.9v.7H146v-.9c0-1.4-.6-2.1-1.7-2.1-.5 0-1 .2-1.2.5s-.4.9-.4 1.6c0 .6.1 1.1.4 1.7s.5 1 .9 1.4c.4.4.8.8 1.3 1.2.5.4.9.8 1.4 1.3.5.5.9.9 1.3 1.4s.7 1.1.9 1.8.4 1.5.4 2.3c0 1.7-.4 3-1.3 3.9s-2 1.4-3.6 1.4c-1.5 0-2.8-.5-3.7-1.4-.8-.9-1.3-2.2-1.3-3.9zm13.2 5.1v-21h9v3h-5.7v5.9h4.5v3h-4.5v6.2h5.7v3h-9z" fill="#355d01"/></svg>