<svg width="33" height="33" viewBox="0 0 33 33" fill="none" xmlns="http://www.w3.org/2000/svg">
<path fill-rule="evenodd" clip-rule="evenodd" d="M5.5 2.75H27.5C29.0188 2.75 30.25 3.98122 30.25 5.5V27.5C30.25 29.0188 29.0188 30.25 27.5 30.25H5.5C3.98122 30.25 2.75 29.0188 2.75 27.5V5.5C2.75 3.98122 3.98122 2.75 5.5 2.75ZM5.5 5.5V27.5H27.5V5.5H5.5ZM17.875 16.506H15.308V13.756H17.875V12.375C17.875 10.0968 19.7218 8.25 22 8.25H23.375V11H22C21.2406 11 20.625 11.6156 20.625 12.375V13.756H23.3508V16.506H20.625V24.75H17.875V16.506Z" fill="#EEEDEB"/>
</svg>
