<svg width="33" height="33" viewBox="0 0 33 33" fill="none" xmlns="http://www.w3.org/2000/svg">
<path fill-rule="evenodd" clip-rule="evenodd" d="M29.0394 6.19887L30.9846 6.42605L30.1102 8.1785C29.6838 9.0331 29.257 9.8877 28.8297 10.7423C28.779 10.9233 28.69 11.082 28.5583 11.2886C28.5033 11.3749 28.3153 11.6495 28.3065 11.6627C28.2568 11.7371 28.2201 11.7958 28.1937 11.8429V15.1271C28.1937 23.5311 20.0606 28.8715 12.3799 28.8715C10.8082 28.8715 9.61409 28.7962 8.24676 28.4978C5.99658 28.0067 4.322 27.0307 3.55571 25.3247L2.76679 23.5684L4.68406 23.3921C6.41851 23.2326 7.92232 22.9022 9.07718 22.4597C5.90668 21.9498 4.12995 20.5573 4.12995 17.9422V16.5672H5.50495C5.80705 16.5672 6.07946 16.5427 6.323 16.4977C3.9435 15.075 2.75168 12.7927 2.75168 9.62709C2.75142 9.49217 2.75142 9.49217 2.75061 9.3479C2.74167 7.75229 2.82737 6.8997 3.26418 5.81156C3.54412 5.11419 3.94877 4.46859 4.49336 3.87704L5.53095 2.75L6.53974 3.90289C9.86417 7.70221 13.1504 10.0072 16.5057 10.286C16.5201 6.78019 19.1696 4.12709 22.6935 4.12709C24.3362 4.12709 25.8264 4.75064 26.9974 5.875C27.6383 6.0067 28.319 6.11475 29.0394 6.19887ZM25.9994 8.47277L25.5779 8.37732L25.2868 8.05788C24.5829 7.2855 23.6994 6.87709 22.6935 6.87709C20.6819 6.87709 19.2557 8.31037 19.2557 10.3146C19.2557 10.6421 19.2472 10.848 19.2064 11.1185C19.0436 12.1978 18.4382 13.0646 17.1931 13.0646C13.0708 13.0646 9.35186 10.8562 5.72535 7.08439C5.5384 7.65271 5.49443 8.2369 5.50057 9.3325C5.50139 9.47902 5.50139 9.47902 5.50168 9.62709C5.50168 12.4431 6.64253 13.9834 9.34377 14.842L10.3023 15.1467V16.1524C10.3023 17.372 9.1468 18.5201 7.45619 19.0343C8.23118 19.6223 9.81613 19.9396 12.3804 19.9396H13.7554V21.3146C13.7554 23.2846 11.4917 24.8271 8.07228 25.6326C9.18745 25.9742 10.6723 26.1215 12.3799 26.1215C18.7247 26.1215 25.4437 21.7096 25.4437 15.1271V11.6896C25.4437 11.2856 25.5608 10.935 25.7553 10.5704C25.8314 10.4279 25.9151 10.292 26.0185 10.137C26.0379 10.1078 26.1101 10.0021 26.1674 9.91759L26.2764 9.69965C26.453 9.34649 26.6295 8.99334 26.806 8.64018C26.5318 8.58824 26.2629 8.53244 25.9994 8.47277Z" fill="#EEEDEB"/>
</svg>
