<svg xmlns="http://www.w3.org/2000/svg" width="26.47" height="26.376" viewBox="0 0 26.47 26.376"><path id="telegramm-gray" d="M1096.27 78.313a13.187 13.187 0 1 1-13.24 13.187 13.213 13.213 0 0 1 13.24-13.187zm-6.88 12.972l2.77 1.027 1.07 3.427a.329.329 0 0 0 .52.154l1.54-1.25a.475.475 0 0 1 .57-.016l2.78 2.008a.326.326 0 0 0 .51-.2l2.04-9.751a.32.32 0 0 0-.43-.368l-11.37 4.357a.325.325 0 0 0 0 .611zm3.67.48l5.41-3.312a.1.1 0 0 1 .12.148l-4.47 4.127a.916.916 0 0 0-.29.55l-.15 1.121a.138.138 0 0 1-.27.019l-.59-2.043a.548.548 0 0 1 .24-.61z" transform="translate(-1083.03 -78.313)" fill="#fff" fill-rule="evenodd"/></svg>