<svg xmlns="http://www.w3.org/2000/svg" width="26.47" height="26.376" viewBox="0 0 26.47 26.376"><path id="vk-gray" d="M988.734 78.313A13.187 13.187 0 1 1 975.5 91.5a13.212 13.212 0 0 1 13.234-13.187zm6.993 16.812a1.078 1.078 0 0 0-.046-.091 7.18 7.18 0 0 0-1.353-1.614l-.014-.015-.007-.007-.007-.008h-.007c-.3-.3-.493-.5-.574-.6a.577.577 0 0 1-.1-.591 5.563 5.563 0 0 1 .637-.956c.194-.258.347-.466.461-.621q1.224-1.679 1.061-2.147l-.042-.074a.41.41 0 0 0-.219-.119 1.057 1.057 0 0 0-.453-.019l-2.039.015a.257.257 0 0 0-.142 0l-.092.021-.035.019-.029.022a.312.312 0 0 0-.077.077.5.5 0 0 0-.071.127 12.113 12.113 0 0 1-.758 1.644q-.261.452-.481.784a3.852 3.852 0 0 1-.368.49 2.72 2.72 0 0 1-.269.252.259.259 0 0 1-.185.08c-.042-.009-.082-.02-.12-.029a.479.479 0 0 1-.159-.179.821.821 0 0 1-.081-.284 2.85 2.85 0 0 1-.025-.3v-.35c0-.15.007-.254.007-.308q0-.278.011-.6l.018-.514c.005-.126.007-.261.007-.4a1.774 1.774 0 0 0-.025-.332 1.194 1.194 0 0 0-.074-.234.4.4 0 0 0-.145-.176.8.8 0 0 0-.238-.1 6.6 6.6 0 0 0-2.647.08.923.923 0 0 0-.27.22c-.085.106-.1.164-.035.174a.853.853 0 0 1 .6.314l.043.087a1.426 1.426 0 0 1 .1.337 3.436 3.436 0 0 1 .064.532 6.005 6.005 0 0 1 0 .913q-.036.381-.067.592a1.21 1.21 0 0 1-.1.343 1.633 1.633 0 0 1-.085.161.14.14 0 0 1-.035.036.531.531 0 0 1-.191.036.448.448 0 0 1-.241-.1 1.765 1.765 0 0 1-.294-.282 3.627 3.627 0 0 1-.343-.5q-.192-.321-.4-.759l-.113-.212q-.107-.2-.29-.6t-.326-.756a.481.481 0 0 0-.17-.233l-.035-.022a.5.5 0 0 0-.114-.063.8.8 0 0 0-.162-.047l-1.94.014a.486.486 0 0 0-.4.139l-.028.044a.229.229 0 0 0-.022.116.606.606 0 0 0 .043.2q.424 1.031.924 1.986t.867 1.542q.367.584.751 1.1c.255.345.423.567.506.664s.147.17.195.219l.176.175a4.178 4.178 0 0 0 .5.421 8.443 8.443 0 0 0 .729.483 3.914 3.914 0 0 0 .931.386 3.171 3.171 0 0 0 1.034.122h.814a.56.56 0 0 0 .375-.161l.028-.036a.525.525 0 0 0 .054-.135.789.789 0 0 0 .024-.2 2.5 2.5 0 0 1 .046-.566 1.531 1.531 0 0 1 .121-.38.942.942 0 0 1 .152-.215.631.631 0 0 1 .12-.105.432.432 0 0 1 .057-.026.442.442 0 0 1 .4.113 2.4 2.4 0 0 1 .432.424c.134.167.3.357.485.566a3.386 3.386 0 0 0 .495.467l.148.094a1.685 1.685 0 0 0 .368.161.766.766 0 0 0 .4.036l1.812-.028a.8.8 0 0 0 .418-.092.359.359 0 0 0 .177-.2.588.588 0 0 0 0-.248.976.976 0 0 0-.048-.194z" transform="translate(-975.5 -78.313)" fill="#fff" fill-rule="evenodd"/></svg>