<svg width="33" height="33" viewBox="0 0 33 33" fill="none" xmlns="http://www.w3.org/2000/svg">
<path fill-rule="evenodd" clip-rule="evenodd" d="M11 2.75H22C26.5563 2.75 30.25 6.44365 30.25 11V22C30.25 26.5563 26.5563 30.25 22 30.25H11C6.44365 30.25 2.75 26.5563 2.75 22V11C2.75 6.44365 6.44365 2.75 11 2.75ZM11 5.5C7.96243 5.5 5.5 7.96243 5.5 11V22C5.5 25.0376 7.96243 27.5 11 27.5H22C25.0376 27.5 27.5 25.0376 27.5 22V11C27.5 7.96243 25.0376 5.5 22 5.5H11ZM16.5 23.375C12.703 23.375 9.625 20.297 9.625 16.5C9.625 12.703 12.703 9.625 16.5 9.625C20.297 9.625 23.375 12.703 23.375 16.5C23.375 20.297 20.297 23.375 16.5 23.375ZM16.5 20.625C18.7782 20.625 20.625 18.7782 20.625 16.5C20.625 14.2218 18.7782 12.375 16.5 12.375C14.2218 12.375 12.375 14.2218 12.375 16.5C12.375 18.7782 14.2218 20.625 16.5 20.625ZM23.375 11C22.6156 11 22 10.3844 22 9.625C22 8.86561 22.6156 8.25 23.375 8.25C24.1344 8.25 24.75 8.86561 24.75 9.625C24.75 10.3844 24.1344 11 23.375 11Z" fill="#EEEDEB"/>
</svg>
