<svg width="33" height="33" viewBox="0 0 33 33" fill="none" xmlns="http://www.w3.org/2000/svg">
<path fill-rule="evenodd" clip-rule="evenodd" d="M31.625 16.4962C31.625 20.7197 31.2236 23.3161 30.284 24.9262C29.3353 26.6444 28.2246 27.1849 25.9577 27.3437C24.3579 27.4371 20.3426 27.5 16.5037 27.5C12.6561 27.5 8.63879 27.4371 7.02433 27.3426C4.77803 27.1849 3.66714 26.6453 2.71963 24.9458C1.77759 23.3035 1.375 20.6966 1.375 16.5115C1.375 12.3026 1.77565 9.70874 2.71141 8.06107C3.6714 6.33939 4.80029 5.79323 7.02763 5.66293C8.56824 5.55845 12.3703 5.5 16.5037 5.5C20.6281 5.5 24.4285 5.55847 25.9577 5.66211C28.1975 5.79292 29.3262 6.33787 30.2778 8.05479C31.2274 9.70817 31.625 12.2894 31.625 16.4962ZM27.8896 9.41825C27.4455 8.61444 27.1856 8.48851 25.7846 8.40663C24.3274 8.30792 20.5628 8.25 16.5037 8.25C12.4358 8.25 8.66948 8.3079 7.20101 8.40743C5.81411 8.4886 5.55053 8.61612 5.10798 9.4097C4.46536 10.5413 4.125 12.7449 4.125 16.4962C4.125 20.2497 4.46718 22.4655 5.11326 23.592C5.54902 24.3735 5.81076 24.5006 7.20092 24.5983C8.72952 24.6877 12.7079 24.75 16.5037 24.75C20.2909 24.75 24.2673 24.6877 25.7814 24.5994C27.1889 24.5007 27.4469 24.3752 27.8926 23.5689C28.5343 22.4685 28.875 20.2651 28.875 16.5115C28.875 12.7294 28.5361 10.538 27.8896 9.41825ZM13.75 12.375L20.625 16.5L13.75 20.625V12.375Z" fill="#EEEDEB"/>
</svg>
