<svg width="3573" height="1986" viewBox="0 0 3573 1986" fill="none" xmlns="http://www.w3.org/2000/svg"><rect width="3573" height="1986" rx="100" fill="#AC0000"/><path d="M956.046 467v109.48h-159.12V467h-17.34v238h17.34V591.78h159.12V705h17.34V467h-17.34zm292.834 238h18.7L1158.1 467h-17.34l-109.48 238h18.7l30.26-66.98h138.04l30.6 66.98zm-161.84-81.6l62.22-137.36 62.56 137.36h-124.78zm403.71 81.6h20.4l-97.24-122.06L1505.03 467h-19.38l-85.34 109.48h-57.46V467h-17.34v238h17.34V592.12h57.12L1490.75 705zm99.15-238l-3.4 103.36c-3.4 85.68-15.98 120.02-46.92 120.02-3.74 0-6.8-.34-11.22-1.36l-2.04 15.98c6.46 1.7 11.56 2.04 17 2.04 40.12 0 55.42-41.14 59.16-137.02l3.06-87.38h123.08V705h17.34V467H1589.9zm267.67 222.36v-97.58h126.82v-15.3h-126.82v-93.84h141.78V467h-159.12v238h164.22v-15.64h-146.88zm309.85-240.38c30.94 0 52.02-15.3 52.7-41.48h-13.94c-.68 19.04-16.32 30.6-38.76 30.6-22.78 0-38.42-11.56-39.1-30.6h-13.94c.68 26.18 21.76 41.48 53.04 41.48zM2070.86 705h15.3l162.18-208.42V705h17.34V467h-15.3L2088.2 675.76V467h-17.34v238zm454.3 0h20.4l-97.24-122.06L2539.44 467h-19.38l-85.34 109.48h-57.46V467h-17.34v238h17.34V592.12h57.12L2525.16 705zm71.37 0h15.3l162.18-208.42V705h17.34V467h-15.3l-162.18 208.76V467h-17.34v238zM401.933 902.5V1312h135.72v-302.45h124.605V1312h135.72V902.5H401.933zm685.217 418.86c133.38 0 231.08-90.09 231.08-214.11 0-124.02-97.7-214.11-231.08-214.11s-231.075 90.09-231.075 214.11c0 124.02 97.695 214.11 231.075 214.11zm0-111.74c-50.89 0-91.845-38.61-91.845-102.37 0-63.77 40.955-102.38 91.845-102.38 50.9 0 91.85 38.61 91.85 102.38 0 63.76-40.95 102.37-91.85 102.37zM1376.41 1312h215.87c108.22 0 172.57-50.31 172.57-133.97 0-80.14-54.99-124.02-155.02-124.02h-97.7v-47.38h219.38V902.5h-355.1V1312zm135.72-96.53v-65.52h70.79c28.66 0 43.29 10.53 43.29 31.59 0 21.65-15.8 33.93-43.29 33.93h-70.79zm444.4-7.6v-53.82h173.16v-99.45h-173.16v-47.97h197.14V902.5h-332.86V1312h340.47v-104.13h-204.75zm674.66-2.93V902.5h-346.32l-4.68 124.6c-4.68 104.13-18.14 177.84-69.03 177.84h-11.7v187.21h126.36V1312h232.83v80.15h126.36v-187.21h-53.82zm-231.08-166.14l1.17-29.25h94.19v195.39h-126.36c20.47-35.1 28.08-93.6 31-166.14zm661.96 273.2h142.74L3025.8 902.5h-135.72L2711.07 1312h140.4l27.5-71.37h155.61l27.49 71.37zm-145.08-170.82l39.78-102.96 39.78 102.96h-79.56z" fill="#fff"/></svg>