<svg width="127" height="19" viewBox="0 0 127 19" fill="none" xmlns="http://www.w3.org/2000/svg">
<path d="M12.9357 13.45H13.5857C13.6691 13.9167 13.7441 14.5083 13.8107 15.225C13.8774 15.925 13.8941 16.6083 13.8607 17.275C13.6107 17.475 13.3107 17.6417 12.9607 17.775C12.6107 17.8917 12.2357 17.9917 11.8357 18.075C11.4524 18.1583 11.0524 18.2167 10.6357 18.25C10.2357 18.2833 9.85241 18.3 9.48574 18.3C8.08574 18.3 6.83574 18.125 5.73574 17.775C4.63574 17.4083 3.70241 16.8583 2.93574 16.125C2.18574 15.3917 1.60241 14.4583 1.18574 13.325C0.785742 12.175 0.585742 10.8167 0.585742 9.25C0.585742 7.61667 0.810742 6.23333 1.26074 5.1C1.71074 3.95 2.31908 3.01667 3.08574 2.3C3.85241 1.56667 4.74408 1.03333 5.76074 0.699999C6.77741 0.366666 7.84408 0.2 8.96074 0.2C10.0607 0.2 10.9857 0.275 11.7357 0.425C12.4857 0.558332 13.1441 0.766666 13.7107 1.05C13.7107 1.31667 13.7024 1.63333 13.6857 2C13.6691 2.35 13.6441 2.725 13.6107 3.125C13.5774 3.525 13.5357 3.91667 13.4857 4.3C13.4357 4.68333 13.3857 5.03333 13.3357 5.35H12.6857L11.3857 1.75C11.2024 1.65 10.8941 1.58333 10.4607 1.55C10.0441 1.51667 9.62741 1.5 9.21074 1.5C8.37741 1.5 7.58574 1.65833 6.83574 1.975C6.10241 2.275 5.45241 2.75 4.88574 3.4C4.33574 4.03333 3.89408 4.84167 3.56074 5.825C3.22741 6.79167 3.06074 7.93333 3.06074 9.25C3.06074 10.4333 3.21074 11.5083 3.51074 12.475C3.81074 13.425 4.24408 14.2417 4.81074 14.925C5.37741 15.5917 6.06908 16.1083 6.88574 16.475C7.70241 16.825 8.62741 17 9.66074 17C10.2107 17 10.6691 16.9583 11.0357 16.875C11.4024 16.7917 11.6441 16.6833 11.7607 16.55L12.9357 13.45ZM22.2893 18H16.7393V17.275C17.3393 17.0083 17.9393 16.8083 18.5393 16.675L24.8643 0.2H25.5893L31.9143 16.675C32.2476 16.7417 32.5726 16.8167 32.8893 16.9C33.2226 16.9833 33.5309 17.1083 33.8143 17.275V18H27.4143V17.275C27.7476 17.1417 28.0893 17.025 28.4393 16.925C28.7893 16.825 29.1309 16.7417 29.4643 16.675L27.7643 12.1H21.7893L20.1393 16.675C20.8393 16.775 21.5559 16.975 22.2893 17.275V18ZM22.2893 10.8H27.3393L25.3643 5.5L24.8893 3.35H24.8393L24.2143 5.55L22.2893 10.8ZM40.9797 16.675C41.363 16.7583 41.7297 16.85 42.0797 16.95C42.4297 17.0333 42.7714 17.1417 43.1047 17.275V18H36.5297V17.275C36.8964 17.1083 37.2464 16.9833 37.5797 16.9C37.913 16.8167 38.2464 16.7417 38.5797 16.675V1.85C38.1464 1.76667 37.763 1.675 37.4297 1.575C37.0964 1.45833 36.7964 1.34167 36.5297 1.225V0.499999H38.7297C39.3964 0.499999 40.1214 0.466665 40.9047 0.399999C41.7047 0.333333 42.4797 0.3 43.2297 0.3C44.0464 0.3 44.8047 0.391666 45.5047 0.574999C46.2214 0.758332 46.838 1.05 47.3547 1.45C47.8714 1.85 48.2714 2.35833 48.5547 2.975C48.8547 3.59167 49.0047 4.33333 49.0047 5.2C49.0047 6.41667 48.6797 7.425 48.0297 8.225C47.3964 9.025 46.5297 9.6 45.4297 9.95C46.1464 11.0833 46.8964 12.2083 47.6797 13.325C48.463 14.4417 49.2797 15.55 50.1297 16.65L51.4797 17.375V18H48.4547L47.5047 17.3C47.038 16.7167 46.613 16.15 46.2297 15.6C45.8464 15.0333 45.488 14.4667 45.1547 13.9C44.8214 13.3167 44.5047 12.7333 44.2047 12.15C43.9214 11.55 43.6297 10.9167 43.3297 10.25H40.9797V16.675ZM42.6797 1.6C42.2797 1.6 41.9464 1.60833 41.6797 1.625C41.4297 1.64167 41.1964 1.675 40.9797 1.725V9.2H42.7797C43.9297 9.2 44.838 8.83333 45.5047 8.1C46.188 7.36667 46.5297 6.4 46.5297 5.2C46.5297 3.96667 46.1714 3.05833 45.4547 2.475C44.738 1.89167 43.813 1.6 42.6797 1.6ZM59.2727 18H53.7227V17.275C54.3227 17.0083 54.9227 16.8083 55.5227 16.675L61.8477 0.2H62.5727L68.8977 16.675C69.231 16.7417 69.556 16.8167 69.8727 16.9C70.206 16.9833 70.5143 17.1083 70.7977 17.275V18H64.3977V17.275C64.731 17.1417 65.0727 17.025 65.4227 16.925C65.7727 16.825 66.1143 16.7417 66.4477 16.675L64.7477 12.1H58.7727L57.1227 16.675C57.8227 16.775 58.5393 16.975 59.2727 17.275V18ZM59.2727 10.8H64.3227L62.3477 5.5L61.8727 3.35H61.8227L61.1977 5.55L59.2727 10.8ZM93.7131 18H87.5131V17.275C87.8464 17.1417 88.1798 17.0333 88.5131 16.95C88.8464 16.85 89.1881 16.7583 89.5381 16.675V5.425L89.6381 2.5H89.4381L88.6131 5.175L83.4881 18H82.8381L77.9631 5.175L77.0631 2.25H76.8381L76.8631 5.425V16.675C77.1798 16.7417 77.4964 16.825 77.8131 16.925C78.1298 17.025 78.4464 17.1417 78.7631 17.275V18H73.5381V17.275C73.8548 17.1417 74.1798 17.025 74.5131 16.925C74.8631 16.8083 75.2131 16.7167 75.5631 16.65V1.85C75.2131 1.78333 74.8631 1.7 74.5131 1.6C74.1798 1.48333 73.8464 1.35833 73.5131 1.225V0.499999H78.6381L82.9881 11.925L83.8381 14.5H83.8631L84.7131 11.875L89.2131 0.499999H93.7381V1.225C93.4381 1.35833 93.1298 1.48333 92.8131 1.6C92.4964 1.7 92.1714 1.78333 91.8381 1.85V16.7C92.1881 16.7667 92.5131 16.85 92.8131 16.95C93.1298 17.0333 93.4298 17.1417 93.7131 17.275V18ZM109.043 0.499999C109.026 1.16667 108.993 1.84167 108.943 2.525C108.909 3.19167 108.851 3.86667 108.768 4.55H108.118L107.093 1.8H101.643V8.425H105.718L106.693 6.575H107.318C107.418 8.225 107.418 9.90833 107.318 11.625H106.693L105.718 9.725H101.643V16.7H107.393L108.618 13.7H109.243C109.359 14.4 109.443 15.1083 109.493 15.825C109.543 16.5417 109.551 17.2667 109.518 18H97.1928V17.275C97.7761 17.0083 98.4594 16.8083 99.2428 16.675V1.85C98.9094 1.78333 98.5678 1.7 98.2178 1.6C97.8678 1.48333 97.5261 1.35833 97.1928 1.225V0.499999H109.043ZM113.744 0.499999H120.594V1.225C120.194 1.375 119.794 1.50833 119.394 1.625C118.994 1.725 118.594 1.8 118.194 1.85V16.7H123.944L125.419 12.675H126.069C126.119 13.025 126.16 13.4333 126.194 13.9C126.244 14.35 126.277 14.825 126.294 15.325C126.327 15.8083 126.344 16.2833 126.344 16.75C126.344 17.2167 126.335 17.6333 126.319 18H113.744V17.275C114.144 17.0917 114.51 16.9583 114.844 16.875C115.177 16.7917 115.494 16.725 115.794 16.675V1.85C115.41 1.78333 115.044 1.7 114.694 1.6C114.344 1.48333 114.027 1.35833 113.744 1.225V0.499999Z" fill="#EEEDEB"/>
</svg>
