<svg width="86" height="86" viewBox="0 0 86 86" fill="none" xmlns="http://www.w3.org/2000/svg"><g clip-path="url(#clip0)" fill="#AC0000"><path d="M11.523 86h54.466a4.3 4.3 0 0 0 4.3-4.3V14.333h5.734a2.867 2.867 0 0 0 2.867-2.867v-4.3A7.176 7.176 0 0 0 71.722 0h-60.2a4.3 4.3 0 0 0-4.3 4.3v77.4a4.3 4.3 0 0 0 4.3 4.3zm60.2-83.133a4.3 4.3 0 0 1 4.3 4.3v4.3H18.689v-4.3a7.091 7.091 0 0 0-1.47-4.3h54.504zM10.089 4.3c0-.792.642-1.433 1.434-1.433a4.3 4.3 0 0 1 4.3 4.3v4.3a2.867 2.867 0 0 0 2.866 2.866h48.733V81.7c0 .792-.641 1.433-1.433 1.433H11.523a1.433 1.433 0 0 1-1.434-1.433V4.3z"/><path d="M18.69 35.833h8.599a2.867 2.867 0 0 0 2.867-2.866v-1.433a1.434 1.434 0 0 0-2.867 0v1.433h-8.6v-8.6h4.3a1.433 1.433 0 0 0 0-2.867h-4.3a2.867 2.867 0 0 0-2.867 2.867v8.6a2.867 2.867 0 0 0 2.867 2.866zm0 20.067h8.599a2.867 2.867 0 0 0 2.867-2.866v-8.6a2.868 2.868 0 0 0-2.867-2.868h-8.6a2.867 2.867 0 0 0-2.867 2.868v8.6A2.867 2.867 0 0 0 18.69 55.9zm0-11.466h8.599v8.6h-8.6v-8.6zm0 31.532h8.599a2.867 2.867 0 0 0 2.867-2.866v-8.6a2.867 2.867 0 0 0-2.867-2.867h-8.6a2.867 2.867 0 0 0-2.867 2.867v8.6a2.867 2.867 0 0 0 2.867 2.866zm0-11.466h8.599v8.6h-8.6v-8.6zm17.2-37.267h7.166a1.433 1.433 0 1 0 0-2.866H35.89a1.433 1.433 0 1 0 0 2.866zm12.899 0h14.334a1.433 1.433 0 0 0 0-2.866H48.789a1.433 1.433 0 0 0 0 2.866zM35.89 32.967h14.333a1.434 1.434 0 0 0 0-2.867H35.889a1.433 1.433 0 1 0 0 2.867zM63.123 30.1h-7.167a1.433 1.433 0 0 0 0 2.867h7.167a1.433 1.433 0 0 0 0-2.867zM35.89 47.3h7.166a1.433 1.433 0 1 0 0-2.866H35.89a1.433 1.433 0 1 0 0 2.866zm27.233-2.866H48.789a1.433 1.433 0 0 0 0 2.866h14.334a1.433 1.433 0 0 0 0-2.866zm-27.233 8.6h14.333a1.434 1.434 0 0 0 0-2.867H35.889a1.433 1.433 0 1 0 0 2.867zm27.233-2.867h-7.167a1.433 1.433 0 0 0 0 2.867h7.167a1.433 1.433 0 0 0 0-2.867zm-27.233 17.2h7.166a1.433 1.433 0 1 0 0-2.867H35.89a1.433 1.433 0 1 0 0 2.867zM63.123 64.5H48.789a1.433 1.433 0 0 0 0 2.867h14.334a1.433 1.433 0 0 0 0-2.867zM35.89 73.1h14.333a1.434 1.434 0 0 0 0-2.867H35.889a1.433 1.433 0 1 0 0 2.867zm27.233-2.867h-7.167a1.433 1.433 0 0 0 0 2.867h7.167a1.433 1.433 0 0 0 0-2.867z"/><path d="M22.57 26.22a1.434 1.434 0 0 0-2.027 2.027l2.866 2.866c.27.269.634.42 1.013.42h.12c.42-.035.803-.253 1.048-.596l7.166-10.034a1.433 1.433 0 1 0-2.333-1.665l-6.182 8.656-1.671-1.674z"/></g><defs><clipPath id="clip0"><path fill="#fff" d="M0 0h86v86H0z"/></clipPath></defs></svg>