<svg width="86" height="86" viewBox="0 0 86 86" fill="none" xmlns="http://www.w3.org/2000/svg"><path d="M70.233 10.033h-7.175C59.981 3.648 55.58 0 50.883 0c-4.721 0-9.143 3.687-12.222 10.135-8.005 1.016-14.294 10.218-14.294 21.398a25.815 25.815 0 0 0 4.361 14.815 22.035 22.035 0 0 0-3.542 7.385c-.33 1.271-.573 2.57-.818 3.827-.287 1.52-.573 2.968-.987 4.369C11.586 62.98 0 66.997 0 73.817 0 80.763 12.94 86 30.1 86c17.16 0 30.1-5.237 30.1-12.183 0-5.979-9.777-10.796-23.937-11.926.134-.971.313-1.952.493-2.92l.125-.664a35.897 35.897 0 0 1 1.415-5.433c.607.101 1.222.154 1.837.16h30.1c8.694 0 15.767-9.646 15.767-21.5 0-11.856-7.073-21.5-15.767-21.5zm-19.35-7.166c3.268 0 6.465 2.58 8.96 7.166H41.926c2.493-4.586 5.69-7.166 8.957-7.166zM40.133 12.9c7.114 0 12.9 8.36 12.9 18.633 0 10.274-5.786 18.634-12.9 18.634a8.4 8.4 0 0 1-.686-.028l.091-.18a8.842 8.842 0 0 1 3.77-3.528 9.99 9.99 0 0 0 2.724-2.293c.047-.045.09-.093.131-.143.255-.306.498-.627.73-.962a19.054 19.054 0 0 0 3.089-8.633v-.023a21.64 21.64 0 0 0 .185-2.844c0-9.431-5.188-15.766-10.034-15.766-4.846 0-10.033 6.335-10.033 15.766-.06 3.64.832 7.232 2.59 10.42-.161.145-.321.292-.479.44-.132.123-.258.246-.387.37-.348.339-.683.68-1.003 1.028-.072.076-.152.144-.222.227a23.714 23.714 0 0 1-3.366-12.485c0-10.274 5.787-18.633 12.9-18.633zm-5.168 27.233a18.23 18.23 0 0 1-1.998-8.6c0-7.992 4.174-12.9 7.166-12.9 2.993 0 7.167 4.908 7.167 12.9a18.83 18.83 0 0 1-.162 2.517c-.034.3-.107.58-.155.873-.451.152-.891.301-1.377.459a39.064 39.064 0 0 0-10.641 4.751zm22.368 33.684c0 4.406-11.18 9.316-27.233 9.316s-27.233-4.91-27.233-9.316c0-3.459 7.176-7.568 19.322-8.898-.088.164-.166.34-.26.5a6.242 6.242 0 0 1-6.01 3.39 1.416 1.416 0 0 0-1.577 1.272 1.433 1.433 0 0 0 1.273 1.577c.318.035.638.052.959.052a9.03 9.03 0 0 0 7.823-4.83 16.37 16.37 0 0 0 1.426-3.145v-.01a40.883 40.883 0 0 0 1.357-5.622c.241-1.267.469-2.462.777-3.642a19.372 19.372 0 0 1 3.65-7.213 26.366 26.366 0 0 1 3.857-3.908 32.385 32.385 0 0 1 10.69-5.122c-.032.085-.05.181-.084.264-.033.083-.08.163-.116.251-.225.57-.485 1.126-.78 1.664-.134.24-.3.44-.448.665-.218.336-.43.687-.665.988l-.017.017-.016.017c-.03.028-.057.057-.083.087a7.277 7.277 0 0 1-2.029 1.754 11.57 11.57 0 0 0-4.92 4.712 23.711 23.711 0 0 0-.942 2.05 36.32 36.32 0 0 0-1.986 7.096l-.124.66a21.307 21.307 0 0 0-.314 9.503 7.283 7.283 0 0 0 4.618 5.08 1.435 1.435 0 0 0 .906-2.724 4.482 4.482 0 0 1-2.759-3.117 9.889 9.889 0 0 1-.318-2.437c13.16 1.068 21.256 5.448 21.256 9.069zm12.9-23.65H47.965C52.7 46.453 55.9 39.5 55.9 31.533c0-7.966-3.2-14.92-7.935-18.633h13.228a45.89 45.89 0 0 1 3.178 14.637 4.316 4.316 0 1 0 2.867-.08A49.864 49.864 0 0 0 64.289 12.9h5.944c7.114 0 12.9 8.36 12.9 18.633 0 10.274-5.786 18.634-12.9 18.634zm-4.3-20.067a1.433 1.433 0 1 1 0 2.867 1.433 1.433 0 0 1 0-2.867z" fill="#AC0000"/><path d="M31.376 77.409c-12.192 1.354-19.107-2.633-19.175-2.673a1.433 1.433 0 0 0-1.473 2.46c.266.158 5.741 3.365 15.607 3.365a48.415 48.415 0 0 0 5.356-.303 1.434 1.434 0 0 0-.315-2.85z" fill="#AC0000"/></svg>