<svg width="33" height="33" viewBox="0 0 33 33" fill="none" xmlns="http://www.w3.org/2000/svg"><g clip-path="url(#clip0)"><path d="M16.5 0C7.39 0 .002 7.388.002 16.5S7.389 33 16.501 33 33 25.612 33 16.5 25.613 0 16.5 0zm8.714 24.075l-1.321 1.322c-.236.235-.927.382-.949.382a15.591 15.591 0 0 1-11.16-4.562A15.61 15.61 0 0 1 7.22 10.018c0-.002.15-.672.387-.906l1.32-1.321c.484-.486 1.413-.705 2.063-.488l.278.093c.649.218 1.33.935 1.509 1.596l.664 2.439c.18.662-.062 1.605-.545 2.088l-.883.883a9.37 9.37 0 0 0 6.589 6.59l.882-.882c.485-.486 1.428-.727 2.089-.549l2.439.667c.66.182 1.378.859 1.595 1.507l.093.282c.215.649-.003 1.577-.486 2.058z" fill="#AC0000"/></g><defs><clipPath id="clip0"><path fill="#fff" d="M0 0h33v33H0z"/></clipPath></defs></svg>