<svg width="44" height="44" viewBox="0 0 44 44" fill="none" xmlns="http://www.w3.org/2000/svg"><path d="M22 0C9.85 0 0 9.85 0 22s9.85 22 22 22 22-9.85 22-22S34.15 0 22 0zm11.16 24.38c1.025 1 2.11 1.944 3.03 3.049.408.488.793.994 1.085 1.562.418.811.04 1.7-.685 1.748h-4.507c-1.164.096-2.09-.374-2.871-1.17-.624-.634-1.202-1.311-1.803-1.967a4.158 4.158 0 0 0-.811-.722c-.615-.4-1.149-.277-1.5.364-.36.654-.441 1.377-.476 2.104-.049 1.063-.37 1.34-1.436 1.39-2.278.108-4.44-.238-6.45-1.387-1.772-1.013-3.144-2.443-4.34-4.062-2.328-3.157-4.11-6.62-5.713-10.185-.36-.802-.096-1.231.79-1.248 1.47-.028 2.941-.025 4.412-.002.599.01.995.353 1.225.917.795 1.956 1.77 3.817 2.99 5.543.326.46.658.918 1.131 1.242.522.358.92.24 1.167-.343.157-.37.225-.766.26-1.163.116-1.36.13-2.72-.072-4.074-.126-.848-.603-1.395-1.448-1.555-.43-.082-.367-.241-.158-.487.363-.425.704-.688 1.384-.688h5.092c.803.157.983.517 1.092 1.325l.004 5.66c-.01.312.157 1.24.72 1.444.45.149.746-.212 1.016-.497 1.22-1.296 2.09-2.825 2.87-4.409.344-.698.64-1.42.928-2.144.215-.535.548-.798 1.152-.79l4.904.006c.144 0 .29.002.434.027.827.14 1.053.496.797 1.303-.402 1.266-1.184 2.321-1.948 3.38-.82 1.132-1.693 2.225-2.504 3.362-.746 1.04-.687 1.563.239 2.466z" fill="#AC0000"/></svg>