<svg width="86" height="86" viewBox="0 0 86 86" fill="none" xmlns="http://www.w3.org/2000/svg"><g clip-path="url(#clip0)" fill="#AC0000"><path d="M84.615 47.094c-5.345 0-9.696-4.35-9.696-9.696v-1.385H61.068V0H14.785L.122 14.663v65.675h55.886a33.4 33.4 0 0 0 8.67 5.428l.545.234.546-.234a33.34 33.34 0 0 0 20.23-30.68v-7.992h-1.384zM4.85 13.851l9.122-9.122v9.122H4.851zm3.582 2.77h8.31v-8.31h36.014v13.851H8.433v-5.54zm-5.54 0h2.77v8.311h49.864V5.541H16.743V2.77h41.554v33.242h-2.77V37.4c0 5.345-4.35 9.695-9.696 9.695h-1.385v7.991c0 8.5 3.22 16.455 8.714 22.482H2.892V16.622zM83.23 55.086a30.574 30.574 0 0 1-18.007 27.896 30.573 30.573 0 0 1-18.007-27.896v-5.297c5.77-.64 10.364-5.234 11.003-11.003h14.006c.64 5.77 5.234 10.364 11.003 11.003v5.297h.002z"/><path d="M71.186 56.087l3.62-8.448-2.545-1.09-3.493 8.151a9.637 9.637 0 0 0-3.545-.68c-5.345 0-9.696 4.35-9.696 9.696 0 5.345 4.35 9.696 9.696 9.696 5.345 0 9.696-4.351 9.696-9.696 0-3.097-1.466-5.853-3.733-7.63zM65.223 70.64a6.934 6.934 0 0 1-6.926-6.925 6.934 6.934 0 0 1 6.926-6.926c.864 0 1.684.179 2.448.47l-3.066 7.15-2.77-1.847-1.536 2.305 5.54 3.694 4.201-9.804a6.893 6.893 0 0 1 2.109 4.958 6.934 6.934 0 0 1-6.926 6.925zM5.662 74.797h36.014V49.865H5.662v24.932zm2.77-22.162h30.474v19.392H8.433V52.635zm2.771-24.932h30.473v2.77H11.203v-2.77zm-5.541 0h2.77v2.77h-2.77v-2.77zm0 5.54h36.014v2.77H5.662v-2.77zm0 5.541h36.014v2.77H5.662v-2.77zm0 5.54h36.014v2.77H5.662v-2.77z"/></g><defs><clipPath id="clip0"><path fill="#fff" d="M0 0h86v86H0z"/></clipPath></defs></svg>